<svg xmlns="http://www.w3.org/2000/svg" width="1280" height="720" viewBox="0 0 1280 720" role="img">
  <defs>
    <linearGradient id="bg" x1="0" y1="0" x2="1" y2="1">
      <stop offset="0%" stop-color="#0d0f14"/>
      <stop offset="100%" stop-color="#151922"/>
    </linearGradient>
    <linearGradient id="accent" x1="0" y1="0" x2="1" y2="0">
      <stop offset="0%" stop-color="#f5a623"/>
      <stop offset="100%" stop-color="#e8910d"/>
    </linearGradient>
  </defs>
  <rect width="1280" height="720" fill="url(#bg)"/>
  <rect x="48" y="48" width="220" height="624" rx="12" fill="#1a1f2a" stroke="#2a3142"/>
  <rect x="300" y="48" width="932" height="88" rx="10" fill="#1a1f2a" stroke="#2a3142"/>
  <rect x="300" y="160" width="932" height="512" rx="12" fill="#1a1f2a" stroke="#2a3142"/>
  <rect x="72" y="120" width="172" height="12" rx="4" fill="#2a3142"/>
  <rect x="72" y="156" width="140" height="12" rx="4" fill="#3d465c"/>
  <rect x="72" y="192" width="160" height="12" rx="4" fill="#2a3142"/>
  <rect x="328" y="200" width="280" height="24" rx="6" fill="url(#accent)" opacity="0.9"/>
  <rect x="328" y="248" width="520" height="14" rx="4" fill="#3d465c"/>
  <rect x="328" y="280" width="440" height="14" rx="4" fill="#2a3142"/>
  <rect x="328" y="340" width="860" height="48" rx="8" fill="#12151c" stroke="#2a3142"/>
  <rect x="328" y="408" width="860" height="48" rx="8" fill="#12151c" stroke="#2a3142"/>
  <rect x="328" y="476" width="860" height="48" rx="8" fill="#12151c" stroke="#2a3142"/>
  <text x="640" y="680" text-anchor="middle" font-family="system-ui,sans-serif" font-size="18" fill="#6b7280">Point of Sale</text>
</svg>
